Coordinates
version=1
nRows=17
nColumns=36
inDegrees=yes

Units are S.I. units (second, meters, Newtons, ...)
If the header above contains a line with 'inDegrees', this indicates whether rotational values are in degrees (yes) or radians (no).

endheader
time	pelvis_tilt	pelvis_list	pelvis_rotation	pelvis_tx	pelvis_ty	pelvis_tz	hip_flexion_r	hip_adduction_r	hip_rotation_r	knee_angle_r	knee_angle_r_beta	ankle_angle_r	subtalar_angle_r	mtp_angle_r	hip_flexion_l	hip_adduction_l	hip_rotation_l	knee_angle_l	knee_angle_l_beta	ankle_angle_l	subtalar_angle_l	mtp_angle_l	lumbar_extension	lumbar_bending	lumbar_rotation	arm_flex_r	arm_add_r	arm_rot_r	elbow_flex_r	pro_sup_r	arm_flex_l	arm_add_l	arm_rot_l	elbow_flex_l	pro_sup_l
     44.66666670	     -5.36949902	      5.97232357	      2.10925571	      1.06684888	      0.91594673	      0.73654625	     -5.62774540	     -7.01458633	      8.48809468	     13.95331546	      0.24353130	     17.01373756	      7.36620492	     -7.49999987	     31.27535716	      1.92681306	     -6.09950337	     14.29224687	      0.24944677	      4.47037019	     -0.16000378	     -7.49999987	    -14.48639996	     -8.59507865	      7.31417939	     12.90718733	    -14.29852256	     17.74963457	     28.27804495	     82.08238495	      6.01930001	     -9.64147790	      6.06687833	     19.67495920	     78.18962572
     44.68333330	     -5.83345740	      6.33126461	      2.25714724	      1.07267084	      0.91159446	      0.72931390	     -6.33022621	     -7.54383309	      8.51994173	     14.55803609	      0.25408566	     16.44182766	      7.21542948	     -7.49999987	     31.49730828	      3.23286595	     -5.95660323	     15.14799515	      0.26438239	      3.92434255	      0.59320412	     -7.49999987	    -13.70755347	     -9.32002884	      7.22765112	     12.49569654	    -13.94570285	     17.73106781	     28.41160895	     81.92996083	      5.72882803	     -9.90808171	      5.94996553	     19.51518247	     78.14083800
     44.70000000	     -6.12598003	      6.50306517	      2.34451658	      1.07690143	      0.90809457	      0.72307132	     -6.98754609	     -7.96401474	      8.45820465	     15.29769492	      0.26699514	     16.22607441	      6.87263580	     -7.49999987	     31.60558824	      4.17357045	     -5.73756640	     16.24166533	      0.28347054	      3.16064600	      1.11032943	     -7.49999987	    -13.18856099	     -9.76147501	      7.19834340	     12.07502522	    -13.73815331	     17.69478810	     28.38051415	     81.86803411	      5.47124035	    -10.02998761	      5.86134487	     19.27713725	     78.11973930
     44.71666670	     -6.46465969	      6.61401511	      2.39616758	      1.07816769	      0.90571180	      0.71937656	     -7.36769298	     -8.32682944	      8.44747700	     16.05503314	      0.28021319	     16.07205529	      6.33007353	     -7.49999987	     31.88885883	      4.86761546	     -5.33925498	     17.44477331	      0.30446873	      2.51772877	      1.45778093	     -7.49999987	    -12.70982405	    -10.17223482	      7.15036456	     11.62582823	    -13.57151345	     17.60574293	     28.37283105	     81.78717393	      5.22241914	    -10.10733396	      5.76894809	     19.03934407	     78.08754695
     44.73333330	     -7.47483573	      6.43401799	      2.46271607	      1.07807558	      0.90220631	      0.71796033	     -6.72123253	     -8.26000490	      9.06052617	     17.01544143	      0.29697548	     15.54883838	      4.60507961	     -7.49999987	     33.14729971	      5.17924985	     -4.45613650	     19.06906145	      0.33281791	      2.08974596	      1.00559932	     -7.49999987	    -11.49575492	    -10.31918752	      7.32621635	     10.81333893	    -13.34199067	     16.78360328	     28.68432441	     81.30335916	      4.97454507	    -10.07519304	      5.43052721	     18.47697893	     77.95155076
     44.75000000	     -7.59650865	      6.60363470	      2.34201970	      1.07925320	      0.90010542	      0.71678207	     -6.84137935	     -8.56849520	      9.04437805	     18.15784682	      0.31691421	     15.04362327	      4.09979433	     -7.49999987	     33.37992339	      5.65126436	     -3.90554935	     20.76726891	      0.36245722	      2.02861203	      0.65750279	     -7.49999987	    -11.60459169	    -10.92040144	      7.38041893	     10.57271814	    -13.17305219	     16.67053446	     28.72038912	     81.23052183	      4.99026564	    -10.23527719	      5.37840995	     18.41419528	     77.93376714
     44.76666670	     -8.34967400	      6.49810053	      2.31174134	      1.08322806	      0.89797326	      0.71366101	     -6.03383383	     -8.41643113	      9.79036447	     19.88680366	      0.34709020	     13.50571486	      1.74349643	     -7.49999987	     34.18581962	      6.06047252	     -2.47755516	     22.63127694	      0.39499030	      1.90800180	     -1.36626061	     -7.49999987	    -10.63212777	    -11.16046677	      7.66939698	      9.67680990	    -12.95770522	     15.64347525	     29.19923048	     80.76435214	      4.73821991	    -10.26624056	      5.21704264	     18.26536052	     77.88801047
     44.78333330	     -8.29114298	      6.74313068	      2.18697547	      1.08848750	      0.89780432	      0.71043885	     -5.86847421	     -8.72882031	      9.58386538	     22.06741302	      0.38514901	     11.78017891	      1.19911969	     -7.49999987	     33.72324815	      6.67133591	     -1.79587517	     24.11958607	      0.42096619	      2.54891945	     -2.12086331	     -7.49999987	    -10.56127255	    -11.70848406	      7.62557089	      9.14789432	    -12.62935094	     15.53371942	     29.18109781	     80.70283102	      4.63304772	    -10.46891243	      5.17270937	     18.19735982	     77.88180821
     44.80000000	     -8.57861214	      6.59378436	      2.09704986	      1.09375902	      0.89815112	      0.70862957	     -4.90748805	     -8.42522421	     10.12495797	     24.90921709	      0.43474785	      8.69506873	     -1.41278015	     -7.49999987	     33.35969756	      7.00755460	     -0.38318512	     25.28712903	      0.44134366	      2.82610944	     -4.11785544	     -7.49999987	     -9.78237147	    -11.82667734	      7.49511979	      8.09907122	    -12.12258511	     14.95173487	     29.24232395	     80.49464543	      4.22831018	    -10.65954761	      5.09110925	     18.09037346	     77.89549259
     44.81666670	     -8.44444974	      6.40620310	      1.96118653	      1.09828058	      0.90070651	      0.70745722	     -3.84431434	     -8.10823501	     10.08802553	     28.53704387	      0.49806537	      5.19109829	     -2.95685367	     -7.49999987	     32.19749736	      7.16191357	      0.69466597	     25.88340645	      0.45175066	      3.38666462	     -5.28290882	     -7.49999987	     -9.45916619	    -11.89379217	      7.23157277	      7.11179619	    -11.52200831	     14.30029749	     29.20017115	     80.21137532	      4.01377994	    -10.89514094	      5.04702348	     18.07732341	     77.87710062
     44.83333330	     -8.05914455	      6.06290129	      1.81607672	      1.10127761	      0.90532834	      0.70507685	     -2.49560448	     -7.57820155	      9.82731990	     32.78283993	      0.57216849	      1.58516068	     -4.29253078	     -7.49999987	     30.54276611	      7.10030004	      1.70116310	     26.02226542	      0.45417421	      4.20469775	     -6.10359197	     -7.49999987	     -9.53846523	    -11.73651897	      6.67534288	      6.23246075	    -10.94437448	     13.88987469	     28.93786492	     80.07853709	      3.93921789	    -11.07172066	      5.11864874	     17.83615536	     77.94488152
     44.85000000	     -7.53245157	      5.54610817	      1.71128460	      1.10310174	      0.91016165	      0.70140706	     -0.82637380	     -6.86442533	      9.26566203	     37.38091356	      0.65242002	     -2.09275588	     -5.60355947	     -7.49999987	     28.62084885	      6.87757609	      2.72605401	     25.82237532	      0.45068547	      5.05843284	     -6.76889371	     -7.49999987	     -9.82637441	    -11.28951798	      5.94880928	      5.49371075	    -10.48671770	     13.52939017	     28.51435990	     79.98841364	      3.98128616	    -11.16090978	      5.27714603	     17.61256120	     78.04131921
     44.86666670	     -6.82255280	      4.92529150	      1.71531711	      1.10401446	      0.91417016	      0.69769226	      1.00552141	     -6.19010768	      8.26656306	     42.10899497	      0.73494061	     -4.86970185	     -5.71438044	     -7.49999987	     26.44383262	      6.57825516	      3.71377651	     25.35107442	      0.44245972	      6.06148089	     -6.96727066	     -7.49999987	    -10.43461248	    -10.59044195	      5.31174019	      4.76730109	    -10.41458748	     13.48330749	     28.26390742	     79.92086219	      4.16032542	    -11.08134828	      5.33995225	     17.77868084	     78.02217619
     44.88333330	     -6.09077171	      4.11226967	      1.68407015	      1.10365909	      0.91682572	      0.69492041	      2.98202085	     -5.22331393	      7.67313170	     46.44820328	      0.81067408	     -8.32445327	     -7.75107010	     -7.49999987	     24.38966863	      6.00922867	      4.63638374	     24.97682285	      0.43592780	      6.74363012	     -7.83121063	     -7.49999987	    -11.10831527	     -9.60445534	      4.26839809	      4.49655725	    -10.14792146	     13.16475070	     27.68137269	     79.93036003	      4.38366612	    -11.13127220	      5.58450862	     17.52386823	     78.14583928
     44.90000000	     -5.38874830	      3.36472570	      1.78291435	      1.10358620	      0.91999278	      0.69155877	      4.88028631	     -4.57208782	      6.79161774	     50.10139317	      0.87443427	    -10.09369858	     -7.66585916	     -7.49999987	     22.35204952	      5.44860717	      5.26532125	     24.37662654	      0.42545239	      7.35150662	     -7.95297456	     -7.49999987	    -11.72711273	     -8.62994755	      3.67861493	      4.04647511	    -10.29611619	     13.08932206	     27.40470727	     79.90035200	      4.74015518	    -10.96439657	      5.65577768	     17.72673607	     78.14201541
     44.91666670	     -4.48132154	      2.59185632	      1.85593850	      1.10555482	      0.92597544	      0.68875714	      6.16829810	     -3.88625802	      6.09062959	     52.68060971	      0.91945009	    -11.84361678	     -8.41916885	     -7.49999987	     20.18997645	      4.80577433	      5.82774904	     23.83214905	      0.41594947	      7.41077736	     -8.76764357	     -7.49999987	    -12.59317362	     -7.47063481	      2.87415743	      4.02332646	    -10.27321592	     12.70338582	     26.73015603	     79.94761737	      5.09234258	    -10.88721932	      5.93991897	     17.73812963	     78.20821069
     44.93333330	     -3.69796659	      1.97825381	      1.76858442	      1.10834310	      0.93295326	      0.68818621	      7.31178043	     -3.42996617	      5.52763373	     54.01413253	      0.94272446	    -12.58721754	     -8.90083773	     -7.49999987	     18.00607118	      4.16493703	      5.93120307	     22.92226328	      0.40006897	      7.29620295	     -8.98706420	     -7.49999987	    -13.32407490	     -6.55802656	      2.44690386	      3.84735428	    -10.36394984	     12.28257155	     26.38098159	     79.44708112	      5.28084717	    -10.78532057	      5.89961292	     18.34928234	     77.62552309
